<svg id="icon" width="34" height="11" viewBox="0 0 34 11" fill="none" xmlns="http://www.w3.org/2000/svg">
<path d="M18.3514 3.94099L16.7274 0.6521L15.1051 3.94099L11.4731 4.47432L14.1016 7.03166L13.4794 10.6485L16.7274 8.93921L19.9754 10.6485L19.3531 7.03166L21.9789 4.46899L18.3514 3.94099Z" fill="white"/>
<path d="M5.07755 5.80928L3.90599 3.43506L2.73177 5.81017L0.111328 6.19061L2.00466 8.03861L1.56022 10.6484L3.90422 9.41639L6.24466 10.6484L5.80022 8.03861L7.69711 6.19061L5.07755 5.80928Z" fill="white"/>
<path d="M30.9985 5.80928L29.827 3.43506L28.6536 5.81017L26.0332 6.19061L27.9265 8.03861L27.4821 10.6484L29.8261 9.41639L32.1665 10.6484L31.7221 8.03861L33.6181 6.18973L30.9985 5.80928Z" fill="white"/>
</svg>
