<svg id="icon" width="28" height="28" viewBox="0 0 28 28" fill="none" xmlns="http://www.w3.org/2000/svg">
<path d="M27.0319 7.05965L14.3697 0.728097C14.2699 0.678121 14.1599 0.6521 14.0483 0.6521C13.9368 0.6521 13.8268 0.678121 13.727 0.728097L1.0639 7.05965C0.943843 7.11868 0.84287 7.21039 0.772585 7.32422C0.7023 7.43806 0.665555 7.56942 0.666572 7.70321V20.3645C0.664713 20.4991 0.70106 20.6314 0.771392 20.7461C0.841725 20.8608 0.943156 20.9532 1.0639 21.0125L13.727 27.3441C13.827 27.3932 13.9369 27.4187 14.0483 27.4187C14.1598 27.4187 14.2697 27.3932 14.3697 27.3441L27.0337 21.0117C27.1537 20.9522 27.2545 20.8602 27.3245 20.746C27.3944 20.6318 27.4308 20.5002 27.4292 20.3663V7.70321C27.4297 7.56953 27.3928 7.43839 27.3225 7.32464C27.2523 7.2109 27.1516 7.1191 27.0319 7.05965ZM20.2355 5.26854L9.51457 10.9645L7.47635 9.94676L18.1972 4.25165L20.2355 5.26854ZM8.80879 12.217V15.0134L8.22568 14.4303C8.15921 14.3635 8.08011 14.3105 7.99297 14.2745C7.90584 14.2384 7.81241 14.2201 7.71813 14.2205H6.62657V11.1272L8.80879 12.217ZM14.0532 2.17254L16.6177 3.45787L5.89768 9.1521L2.99279 7.70232L14.0532 2.17254ZM13.3323 25.5317L2.1039 19.9219V8.86676L5.18924 10.409V14.9423C5.18947 15.1329 5.26534 15.3156 5.40017 15.4502C5.53501 15.5849 5.71778 15.6605 5.90835 15.6605H7.41946L9.01946 17.2605C9.15426 17.3947 9.33683 17.4698 9.52702 17.4694C9.71727 17.469 9.89959 17.3931 10.034 17.2585C10.1685 17.1239 10.2441 16.9415 10.2444 16.7512V12.9361L13.3288 14.4801L13.3323 25.5317ZM14.0479 13.2303L11.0959 11.7565L21.8168 6.05876L25.1057 7.7041L14.0479 13.2303ZM25.9928 19.9219L14.7661 25.5343V14.4801L25.9919 8.86765L25.9928 19.9219Z" fill="white"/>
</svg>
