<svg version="1.1" id="icon" xmlns="http://www.w3.org/2000/svg" xmlns:xlink="http://www.w3.org/1999/xlink" x="0px" y="0px"
viewBox="0 0 500 500" style="enable-background:new 0 0 500 500;" xml:space="preserve">
<path fill="var(--fill-icon, #1face1)" class="st0" d="M125.2,318.5c12.3-8.6,21.7-20,30.8-31.8c5.7-7.5,12.2-14.5,18.7-21.3c2.7-2.9,6.4-4.9,10.2-7.7
c0,1.8,0.1,2.4,0,3.1c-4.5,38.1-16.7,73.5-36.6,106.3c-2,3.4,12,7.6,9.4,7c1.5-2.4,2.6-4.2,3.6-6c24-41.1,36.2-85.5,37-133.1
c0.1-5.6-1.8-8.1-5.8-8.2c-4,0-6.3,2.6-5.9,8c0.5,6.2-1.4,9.7-7.2,12.8c-13.6,7.3-23.2,19.1-32.6,31.2c-6.9,8.9-14.1,17.8-22.5,25.3
c-19.9,17.8-43.1,20.3-65.1,8.3c-1-0.5-1.9-1.2-3.5-2.2c2.9-1.1,5.4-1.9,7.7-2.8c17.6-6.9,30.5-19.3,41.2-34.4
c13.9-19.7,23.5-41.7,33.9-63.2c5-10.3,10.3-20.5,15.6-30.7c1.5-2.9,3.5-5.7,5.5-8.3c9-12.3,12.2-12.5,26.4-6.9
c15.1,6,30.4,11.8,46.1,15.9c15.4,4.1,31.1,1.9,46.1-3.7c12.2-4.5,24.1-9.5,36.1-14.4c7.5-3.1,11.5-3.1,16.4,3.3
c6.8,9.1,13.2,18.8,18.5,28.9c11.2,21.3,21,43.4,32.6,64.6c5.8,10.5,13.6,20.1,21.5,29.3c9.5,11,22,17.9,36.8,22.4
c-18,10.6-35.6,12.9-54,4c-13.2-6.4-23-16.7-32.1-28c-8.1-10.1-15.9-20.6-25.4-29.3c-6.1-5.6-9.1-10.8-8.2-18.6
c0.2-1.8,0.1-3.7-0.1-5.5c-0.4-3.6-2.1-6-6-5.9c-3.9,0.1-5.8,2.6-5.6,6.2c0.6,11.6,0.9,23.3,2.4,34.8c5.1,37.4,17.2,72.4,37.2,104.5
c0.2,0.3,0.2,0.6,0.5,1.8c-2.1,0.5,12.1-3.5,10.2-6.6c-13.9-22.6-24-46.7-30.5-72.4c-2.2-8.8-3.8-17.7-5.7-26.6
c0.6-0.3,1.1-0.6,1.7-0.8c4.8,5.8,9.5,11.8,14.4,17.5c7.9,9.2,15.2,19.2,24.1,27.2c28.4,25.4,65.2,25.3,93.2,0.3
c1.9-1.7,3.7-5.4,3.1-7.4c-0.6-2-4.2-4-6.7-4.4c-15.8-2.6-30-8.8-40.4-20.9c-8.4-9.8-16.4-20.3-22.6-31.5
c-10.9-20-19.9-41-30.5-61.1c-5.5-10.5-12-20.8-19.5-30c-8.6-10.5-18-11.4-30.5-6c-11.9,5.1-23.9,10.1-36.1,14.3
c-17.2,6-34.7,5.8-51.9-0.6c-12.1-4.5-24.2-9.3-36.1-14.5c-10-4.3-18.9-3-26.7,4.4c-3.1,2.9-6.4,6.1-8.4,9.8
c-8,14.2-15.8,28.5-23.1,43c-10.4,20.8-19.5,42.3-33.5,61.2c-12.9,17.5-29.4,29.1-51.5,32c-2.1,0.3-5.2,2.6-5.6,4.5
c-0.5,1.9,1.1,5.2,2.7,6.8C63.1,335,98,337.5,125.2,318.5z"/>
<path fill="var(--fill-icon, #1face1)" class="st1" d="M458.4,368.3c-0.5-0.1-1-0.2-1.5-0.3c-29.8-5.5-59.6-6.1-89.5-1.1c-3.4,0.6-18,2.3-17.7,3.5
c-36.7,9.1-68,28-96.4,53.4c-28.3-25.2-59.6-44.3-97-53.5c1.5-2.4-14.2-2.9-18.1-3.5c-30.1-5-60.1-4.2-90,1.5
c-8.1,1.5-9.7,5.9-4.5,12.4c49.1,61.3,111.5,95.1,191.5,92.7c7.9-0.2,15.8-0.3,23.7-0.4c16-0.3,32.1,0.4,47.9-1.2
c42.4-4.2,79.8-20.9,112.9-47.6c16.1-13,30.6-27.4,43.2-43.8C467.8,374.1,466.2,370,458.4,368.3z M447.3,380.9
c-32.3,37.1-70.7,64.7-119.6,75.5c-19.2,4.3-38.6,5.6-58.2,5.2c-18.3-0.4-36.7,0.2-55-0.5c-47.4-1.9-88.8-19.2-124.6-50
c-11.3-9.7-21.6-20.6-32.4-30.9c0.4-0.9,0.7-1.8,1.1-2.6c14.9-0.7,29.8-2.1,44.7-2c40.5,0.4,78.3,10.6,112,33.7
c10.8,7.4,20.9,15.9,31,24.3c6.7,5.5,7.6,5.7,13.9,0c25.8-23.4,54.6-41.6,88.6-50.6c27.7-7.3,55.8-9,84.2-6.2c2.5,0.2,5,0.4,7.5,0.7
c2.5,0.3,5,0.8,7.9,1.2C447.9,379.6,447.7,380.4,447.3,380.9z"/>
<path fill="var(--fill-icon, #1face1)" class="st1" d="M253.1,30.5c32.5-0.1,59,26.3,59,58.7c0,32.2-26.3,58.8-58.4,59c-32.3,0.2-59.1-26.3-59.3-58.6
C194.1,57.3,220.6,30.6,253.1,30.5z M253.2,136.9c26.2,0,47.7-21.4,47.8-47.6c0-26.1-21.5-47.7-47.7-47.8
c-26.1,0-47.7,21.5-47.7,47.7C205.6,115.5,226.9,136.8,253.2,136.9z"/>
</svg>