<svg version="1.1" id="arrow"  xmlns="http://www.w3.org/2000/svg" xmlns:xlink="http://www.w3.org/1999/xlink" x="0px" y="0px"
										viewBox="0 0 500 279" style="enable-background:new 0 0 500 279;" xml:space="preserve">
									<!-- <style type="text/css">
										.st0{fill:#222222;}
									</style> -->
									<path fill = "var(--arrow-fill, #000000)" class="st0" d="M495,141.4c-1.4,1.1-3,2.1-4.3,3.4c-41.9,41.8-83.8,83.7-125.6,125.6c-1.3,1.3-2.2,3.1-3.1,4.5
										c-8.1-8.1-15.2-15.1-22.4-22.4c31.8-31.7,63.7-63.6,96.6-96.4c-144,0-286.7,0-429.8,0c0-10.5,0-20.4,0-30.8c142.8,0,285.6,0,429,0
										c-32.5-32.5-64.5-64.4-96.3-96.2c7.9-7.9,14.9-14.9,23-23c0.9,1.4,1.8,3.2,3.1,4.5c41.8,41.9,83.7,83.8,125.6,125.6
										c1.3,1.3,2.9,2.3,4.3,3.4C495,140.2,495,140.8,495,141.4z"/>
									</svg>