<?xml version="1.0" encoding="UTF-8"?>
<!DOCTYPE svg PUBLIC "-//W3C//DTD SVG 1.1//EN" "http://www.w3.org/Graphics/SVG/1.1/DTD/svg11.dtd">
<!-- Creator: CorelDRAW -->
<svg xmlns="http://www.w3.org/2000/svg" xml:space="preserve" width="2.7093mm" height="3.3472mm" version="1.1" style="shape-rendering:geometricPrecision; text-rendering:geometricPrecision; image-rendering:optimizeQuality; fill-rule:evenodd; clip-rule:evenodd"
viewBox="0 0 257.37 317.97"
 xmlns:xlink="http://www.w3.org/1999/xlink"
 xmlns:xodm="http://www.corel.com/coreldraw/odm/2003">
 <defs>
  <style type="text/css">
   <![CDATA[
    .fil0 {fill:#3D96F4}
   ]]>
  </style>
 </defs>
 <g id="Слой_x0020_1">
  <metadata id="CorelCorpID_0Corel-Layer"/>
  <path class="fil0" d="M53.47 100.23l9.35 0 -0.01 -34.22c0.22,-35.12 26.83,-62.18 59.45,-65.62 37.2,-3.93 65.72,22.61 71.86,52.87 1.3,6.41 1.54,26.6 1.49,46.98l9.35 0 2.99 0c26.68,0 49.43,21.42 49.43,49.43l0 39.62c0,70.77 -57.9,128.69 -128.68,128.69 -70.78,0 -128.69,-57.91 -128.69,-128.69l0 -39.62c0,-32.04 24.78,-49.43 53.47,-49.43zm39.84 0l71.66 0 9.33 0c0.32,-16.6 1.11,-39.9 -3.49,-51.08 -5.45,-13.28 -17.96,-24.84 -34.98,-27.43 -20.14,-3.07 -36.31,7.93 -43.37,18.35 -11.26,16.59 -8.5,31.68 -8.5,53.9l0 6.25 9.35 0z"/>
 </g>
</svg>
