<svg width="36" height="37" viewBox="0 0 36 37" fill="none" xmlns="http://www.w3.org/2000/svg">
<path fill-rule="evenodd" clip-rule="evenodd" d="M20.1936 1.04875C19.4396 0.759432 18.6695 0.729432 17.9079 0.916775C17.5935 0.993786 17.3131 1.31658 17.4527 1.64466C17.9084 2.71686 17.2629 3.48817 16.7745 4.26584C13.6676 9.21296 9.8234 13.5446 5.65181 17.5929C4.12955 19.0705 2.55063 20.489 1.00623 21.9432C0.796683 22.1406 0.499692 22.2786 0.645963 22.7167C0.791822 23.1539 1.14935 22.9685 1.35968 23.1024C2.95603 24.1199 4.02814 23.0293 5.17716 22.2179C10.9884 18.1149 15.5788 12.882 19.253 6.80409C19.9253 5.69189 20.4845 4.52011 20.7705 3.24383C20.9524 2.43061 20.9444 1.62997 20.1936 1.04875Z" fill="#1F94AA"/>
<path fill-rule="evenodd" clip-rule="evenodd" d="M28.1597 19.2427C28.2319 18.6297 28.0581 18.2741 27.4884 18.1776C26.9288 18.0827 26.561 18.1893 26.2309 18.7388C25.5248 19.9142 24.3241 20.5576 23.1991 21.2418C19.2383 23.6521 15.1115 25.7592 11.0172 27.9255C10.695 28.0962 10.3536 28.2516 10.3287 28.7252C10.2976 29.3014 10.8382 29.0564 11.0455 29.282C11.7281 30.0248 12.4795 29.6827 13.2049 29.3858C16.9715 27.8435 20.7791 26.3866 24.1997 24.1134C25.3217 23.3676 26.4203 22.5936 27.441 21.706C27.8924 21.3131 27.8641 20.5773 28.5728 20.3378C28.8614 20.2405 29.0438 19.7119 28.9673 19.2684C28.9276 19.0379 28.9121 18.7588 28.6558 18.704C28.3548 18.6397 28.3637 18.9905 28.1597 19.2427Z" fill="#1F94AA"/>
<path fill-rule="evenodd" clip-rule="evenodd" d="M35.1045 33.4466C34.1207 32.9515 33.3493 33.009 32.4442 33.3846C30.7006 34.1083 28.8065 34.1179 26.9435 34.1595C24.4809 34.2151 22.0251 34.1063 19.5773 33.7956C18.9572 33.7166 18.3196 33.7507 17.6916 33.7738C17.4525 33.7824 17.1588 33.8215 17.1649 34.2033C17.1695 34.5144 17.3614 34.5934 17.6004 34.7442C19.4639 35.9198 21.611 35.7985 23.6511 36.0466C26.4323 36.3847 29.2399 36.4408 32.0287 35.9736C33.0522 35.8019 34.0374 35.5094 34.9772 35.0687C35.3799 34.8795 35.7218 34.6397 35.7417 34.1217C35.7632 33.5537 35.3516 33.494 35.1045 33.4466Z" fill="#1F94AA"/>
</svg>
