<svg xmlns="http://www.w3.org/2000/svg" xmlns:xlink="http://www.w3.org/1999/xlink" width="19" height="19" viewBox="0 0 19 19">
  <defs>
    <style>
      .cls-1 {
        fill: #82b53f;
        fill-rule: evenodd;
        filter: url(#filter);
      }
    </style>
    <filter id="filter" x="1020" y="5466" width="19" height="19" filterUnits="userSpaceOnUse">
      <feFlood result="flood" flood-color="#1face1"/>
      <feComposite result="composite" operator="in" in2="SourceGraphic"/>
      <feBlend result="blend" in2="SourceGraphic"/>
    </filter>
  </defs>
  <path id="Forma_1" data-name="Forma 1" class="cls-1" d="M1038.99,5480.99a0.923,0.923,0,0,1-.28.81l-2.68,2.65a1.445,1.445,0,0,1-.47.35,2.091,2.091,0,0,1-.57.18,0.682,0.682,0,0,0-.12.01c-0.07,0-.16.01-0.26,0.01a10.58,10.58,0,0,1-1.24-.13,9.1,9.1,0,0,1-2.09-.65,16.928,16.928,0,0,1-2.81-1.54,21.1,21.1,0,0,1-3.34-2.81,22.93,22.93,0,0,1-2.33-2.66,19.339,19.339,0,0,1-1.49-2.35,11.332,11.332,0,0,1-.84-1.95,10.573,10.573,0,0,1-.39-1.51,5.844,5.844,0,0,1-.08-0.99c0.02-.25.02-0.38,0.02-0.41a2.2,2.2,0,0,1,.18-0.57,1.56,1.56,0,0,1,.35-0.47l2.67-2.68a0.874,0.874,0,0,1,.64-0.28,0.775,0.775,0,0,1,.47.15,1.342,1.342,0,0,1,.34.37l2.15,4.09a0.941,0.941,0,0,1,.1.7,1.277,1.277,0,0,1-.34.65l-0.99.98a0.5,0.5,0,0,0-.07.13,0.494,0.494,0,0,0-.03.15,3.716,3.716,0,0,0,.37.97,9.181,9.181,0,0,0,.74,1.18,13.974,13.974,0,0,0,1.43,1.6,14.41,14.41,0,0,0,1.61,1.44,9.734,9.734,0,0,0,1.17.75,3.055,3.055,0,0,0,.73.29l0.25,0.05a0.451,0.451,0,0,0,.13-0.03,0.316,0.316,0,0,0,.13-0.07l1.15-1.16a1.2,1.2,0,0,1,.84-0.33,1.094,1.094,0,0,1,.55.12h0.02l3.88,2.3A0.981,0.981,0,0,1,1038.99,5480.99Z" transform="translate(-1020 -5466)"/>
</svg>
