<?xml version="1.0" encoding="UTF-8"?>
<!DOCTYPE svg PUBLIC "-//W3C//DTD SVG 1.1//EN" "http://www.w3.org/Graphics/SVG/1.1/DTD/svg11.dtd">
<!-- Creator: CorelDRAW -->
<svg id="logo" xmlns="http://www.w3.org/2000/svg" xml:space="preserve" width="28.2835mm" height="5.6356mm" version="1.1" style="shape-rendering:geometricPrecision; text-rendering:geometricPrecision; image-rendering:optimizeQuality; fill-rule:evenodd; clip-rule:evenodd"
viewBox="0 0 411 81.89"
 xmlns:xlink="http://www.w3.org/1999/xlink"
 xmlns:xodm="http://www.corel.com/coreldraw/odm/2003">
 <defs>
  <style type="text/css">
   <![CDATA[
    .fil0 {fill:#FEFEFE;fill-rule:nonzero}
   ]]>
  </style>
 </defs>
 <g id="Слой_x0020_1">
  <metadata id="CorelCorpID_0Corel-Layer"/>
  <g id="_3054787843808">
   <g>
    <path class="fil0" d="M56.9 26.53c-1.54,-2.69 -3.46,-4.61 -6.15,-6.15 -2.69,-1.54 -5.77,-2.31 -9.61,-2.31 -6.53,0 -11.53,1.92 -15.38,6.15 -3.85,4.23 -5.77,9.61 -5.77,16.92 0,7.31 1.92,13.46 6.15,17.3 3.85,4.23 9.61,6.15 16.53,6.15 5,0 8.84,-1.15 12.3,-3.85 3.46,-2.31 5.77,-6.15 7.31,-10.76l-24.99 0 0 -14.61 43.06 0 0 18.45c-1.54,5 -3.85,9.61 -7.31,13.84 -3.46,4.23 -8.07,7.69 -13.46,10.38 -5.38,2.69 -11.54,3.85 -18.07,3.85 -8.07,0 -14.99,-1.92 -21.53,-5.38 -6.15,-3.46 -11.15,-8.46 -14.61,-14.61 -3.85,-5.38 -5.38,-12.69 -5.38,-20.76 0,-8.07 1.92,-14.99 5.38,-21.53 3.46,-6.15 8.08,-10.76 14.23,-14.22 6.15,-3.46 13.46,-5.38 21.53,-5.38 9.61,0 17.69,2.31 24.61,6.92 6.54,4.61 11.15,11.15 13.07,19.61l-21.92 -0z"/>
    <polygon class="fil0" points="160.71,0.77 132.64,54.98 132.64,81.89 113.04,81.89 113.04,54.98 84.97,0.77 107.27,0.77 123.03,34.99 138.41,0.77 "/>
    <polygon class="fil0" points="260.29,0.77 260.29,81.89 240.68,81.89 240.68,33.45 222.61,81.89 206.85,81.89 188.39,33.07 188.39,81.89 168.78,81.89 168.78,0.77 192.24,0.77 214.92,56.9 237.6,0.77 "/>
   </g>
   <g>
    <polygon class="fil0" points="320.65,1.54 320.65,10 285.67,10 285.67,37.29 314.12,37.3 314.12,45.75 285.67,45.75 285.67,81.89 275.28,81.89 275.28,1.54 "/>
    <polygon class="fil0" points="343.72,1.54 343.72,81.89 333.34,81.89 333.34,1.54 "/>
    <polygon class="fil0" points="411,1.54 411,10 389.09,10 389.09,81.89 378.71,81.89 378.71,10 356.79,10 356.79,1.54 "/>
   </g>
  </g>
 </g>
</svg>
