<svg width="76" height="76" viewBox="0 0 76 76" fill="none" xmlns="http://www.w3.org/2000/svg">
<g clip-path="url(#clip0_1_241)">
<g clip-path="url(#clip1_1_241)">
<path opacity="0.06" d="M55.0286 0.265625H21.2527C9.70499 0.265625 0.34375 9.62687 0.34375 21.1745V54.9505C0.34375 66.4981 9.70499 75.8594 21.2527 75.8594H55.0286C66.5763 75.8594 75.9375 66.4981 75.9375 54.9505V21.1745C75.9375 9.62687 66.5763 0.265625 55.0286 0.265625Z" fill="#FF6F35"/>
<path d="M38.1407 63.803C52.3568 63.803 63.8811 52.2786 63.8811 38.0626C63.8811 23.8466 52.3568 12.3222 38.1407 12.3222C23.9247 12.3222 12.4003 23.8466 12.4003 38.0626C12.4003 52.2786 23.9247 63.803 38.1407 63.803Z" fill="#FFCD1D"/>
<path fill-rule="evenodd" clip-rule="evenodd" d="M38.1406 20.6384C38.8068 20.6384 39.3469 21.1785 39.3469 21.8447V54.2804C39.3469 54.9466 38.8068 55.4867 38.1406 55.4867C37.4744 55.4867 36.9343 54.9466 36.9343 54.2804V21.8447C36.9343 21.1785 37.4744 20.6384 38.1406 20.6384Z" fill="white"/>
<path d="M45.5124 27.7421H34.4548C33.0862 27.7421 31.7737 28.2857 30.8059 29.2535C29.8382 30.2211 29.2946 31.5337 29.2946 32.9022C29.2946 34.2708 29.8382 35.5833 30.8059 36.5511C31.7737 37.5188 33.0862 38.0625 34.4548 38.0625H41.8265C43.195 38.0625 44.5076 38.6061 45.4753 39.5739C46.4431 40.5415 46.9867 41.8541 46.9867 43.2227C46.9867 44.5913 46.4431 45.9038 45.4753 46.8715C44.5076 47.8392 43.195 48.3829 41.8265 48.3829H29.2946" stroke="white" stroke-width="2.41257" stroke-linecap="round" stroke-linejoin="round"/>
</g>
</g>
<defs>
<clipPath id="clip0_1_241">
<rect width="75.5938" height="75.5938" fill="white" transform="translate(0.34375 0.265625)"/>
</clipPath>
<clipPath id="clip1_1_241">
<rect width="75.5938" height="75.5938" fill="white" transform="translate(0.34375 0.265625)"/>
</clipPath>
</defs>
</svg>
