<svg width="77" height="76" viewBox="0 0 77 76" fill="none" xmlns="http://www.w3.org/2000/svg">
<g clip-path="url(#clip0_5_3)">
<g clip-path="url(#clip1_5_3)">
<path opacity="0.06" d="M55.9787 0H22.0213C10.4115 0 1 9.41155 1 21.0213V54.9787C1 66.5885 10.4115 76 22.0213 76H55.9787C67.5885 76 77 66.5885 77 54.9787V21.0213C77 9.41155 67.5885 0 55.9787 0Z" fill="#F6CA4F"/>
<path d="M39.0001 63.8788C53.2925 63.8788 64.8788 52.2925 64.8788 38.0001C64.8788 23.7076 53.2925 12.1213 39.0001 12.1213C24.7076 12.1213 13.1213 23.7076 13.1213 38.0001C13.1213 52.2925 24.7076 63.8788 39.0001 63.8788Z" fill="#FF6D35"/>
<path fill-rule="evenodd" clip-rule="evenodd" d="M29.4495 27.3271C27.6672 27.3271 26.2048 28.7895 26.2048 30.5718V45.4282C26.2048 47.2105 27.6672 48.6729 29.4495 48.6729H48.5505C50.3328 48.6729 51.7952 47.2105 51.7952 45.4282V30.5718C51.7952 28.7895 50.3328 27.3271 48.5505 27.3271H29.4495ZM24.2048 30.5718C24.2048 27.685 26.5626 25.3271 29.4495 25.3271H48.5505C51.4374 25.3271 53.7952 27.685 53.7952 30.5718V45.4282C53.7952 48.3151 51.4374 50.6729 48.5505 50.6729H29.4495C26.5626 50.6729 24.2048 48.3151 24.2048 45.4282V30.5718Z" fill="white"/>
<path fill-rule="evenodd" clip-rule="evenodd" d="M24.3531 31.1089C24.6426 30.6385 25.2585 30.4918 25.7289 30.7813L39 38.9481L52.2711 30.7813C52.7415 30.4918 53.3574 30.6385 53.6469 31.1089C53.9363 31.5792 53.7897 32.1952 53.3193 32.4846L39.5241 40.974C39.2027 41.1718 38.7973 41.1718 38.4759 40.974L24.6807 32.4846C24.2103 32.1952 24.0637 31.5792 24.3531 31.1089Z" fill="white"/>
</g>
</g>
<defs>
<clipPath id="clip0_5_3">
<rect width="75.5938" height="75.5938" fill="white" transform="translate(0.71875 0.265625)"/>
</clipPath>
<clipPath id="clip1_5_3">
<rect width="76" height="76" fill="white" transform="translate(1)"/>
</clipPath>
</defs>
</svg>
