<svg id="logo" width="80" height="30" viewBox="0 0 80 30" fill="none" xmlns="http://www.w3.org/2000/svg">
<path fill-rule="evenodd" clip-rule="evenodd" d="M0.811035 27.2539H4.79857V11.449H0.811035V27.2539Z" fill="#112D35"/>
<path fill-rule="evenodd" clip-rule="evenodd" d="M2.80497 1.5C1.25606 1.5 0.000488281 2.7362 0.000488281 4.26091C0.000488281 5.78562 1.25606 7.02158 2.80497 7.02158C4.35388 7.02158 5.60946 5.78562 5.60946 4.26091C5.60946 2.7362 4.35388 1.5 2.80497 1.5Z" fill="#112D35"/>
<path fill-rule="evenodd" clip-rule="evenodd" d="M18.1995 11.1189C13.6804 11.1189 10.0039 14.738 10.0039 19.1865V27.2541H13.9914V19.1865C13.9914 16.9025 15.8793 15.0441 18.1995 15.0441C20.5198 15.0441 22.4076 16.9025 22.4076 19.1865V27.2541H26.3952V19.1865C26.3952 14.738 22.7187 11.1189 18.1995 11.1189Z" fill="#112D35"/>
<path fill-rule="evenodd" clip-rule="evenodd" d="M44.782 6.2124H40.7944V20.0246C40.7944 24.0109 44.0889 27.2541 48.1385 27.2541H51.3455V23.3289H48.1385C46.2878 23.3289 44.782 21.8466 44.782 20.0246V15.3744H50.0994V11.4492H44.782V6.2124Z" fill="#112D35"/>
<path fill-rule="evenodd" clip-rule="evenodd" d="M64.3443 23.3349C62.0906 24.1482 59.5847 23.0047 58.7585 20.786C57.9323 18.5673 59.0939 16.1007 61.3479 15.2875C63.6019 14.4742 66.1078 15.6174 66.9339 17.8364C67.7601 20.0552 66.5982 22.5217 64.3443 23.3349ZM79.6816 13.2368C79.1483 11.8046 77.5366 11.0691 76.0816 11.5943C75.2916 11.8791 74.7129 12.4785 74.4318 13.1948L74.4303 13.1909C73.9119 14.5108 71.7673 16.403 68.7134 13.4438L68.7146 13.4475C66.4806 11.2877 63.0982 10.4516 59.9677 11.5811C55.6377 13.1436 53.4062 17.8821 54.9933 22.1444C56.5803 26.4069 61.3943 28.6036 65.7245 27.0413C68.8547 25.9119 70.8871 23.1222 71.1742 20.0527L71.1757 20.0564C71.5635 15.8554 74.4422 15.9351 75.7045 16.6125L75.703 16.6088C76.3877 16.9768 77.2228 17.0656 78.0128 16.7808C79.4678 16.2558 80.2149 14.669 79.6816 13.2368Z" fill="#112D35"/>
<path fill-rule="evenodd" clip-rule="evenodd" d="M31.6011 27.2539H35.5886V11.449H31.6011V27.2539Z" fill="#112D35"/>
<path fill-rule="evenodd" clip-rule="evenodd" d="M33.5945 1.5C32.0456 1.5 30.79 2.7362 30.79 4.26091C30.79 5.78562 32.0456 7.02158 33.5945 7.02158C35.1434 7.02158 36.399 5.78562 36.399 4.26091C36.399 2.7362 35.1434 1.5 33.5945 1.5Z" fill="#112D35"/>
</svg>
